<svg xmlns="http://www.w3.org/2000/svg" viewBox="0 0 1440 320">
  <path fill="#00cba9" fill-opacity="1" d="M0,256L0,128L84.7,128L84.7,192L169.4,192L169.4,32L254.1,32L254.1,128L338.8,128L338.8,64L423.5,64L423.5,32L508.2,32L508.2,192L592.9,192L592.9,128L677.6,128L677.6,192L762.4,192L762.4,32L847.1,32L847.1,224L931.8,224L931.8,192L1016.5,192L1016.5,96L1101.2,96L1101.2,160L1185.9,160L1185.9,224L1270.6,224L1270.6,128L1355.3,128L1355.3,160L1440,160L1440,0L1355.3,0L1355.3,0L1270.6,0L1270.6,0L1185.9,0L1185.9,0L1101.2,0L1101.2,0L1016.5,0L1016.5,0L931.8,0L931.8,0L847.1,0L847.1,0L762.4,0L762.4,0L677.6,0L677.6,0L592.9,0L592.9,0L508.2,0L508.2,0L423.5,0L423.5,0L338.8,0L338.8,0L254.1,0L254.1,0L169.4,0L169.4,0L84.7,0L84.7,0L0,0L0,0Z"></path>
</svg>